HIERARCHY
ROOT Pelvis
{
	OFFSET 0.000000 0.000000 0.000000
	CHANNELS 6 Xposition Yposition Zposition Xrotation Yrotation Zrotation
	JOINT LeftUpLeg_virtual
	{
		OFFSET 0.000000 0.000000 0.000000
		CHANNELS 3 Xrotation Yrotation Zrotation
		JOINT LeftUpLeg
		{
			OFFSET 18.735201 -5.666702 -4.541200
			CHANNELS 3 Xrotation Yrotation Zrotation
			JOINT LeftLeg
			{
				OFFSET -0.021200 -31.938179 0.493100
				CHANNELS 3 Xrotation Yrotation Zrotation
				JOINT LeftFoot
				{
					OFFSET 0.021200 -31.938179 -4.336299
					CHANNELS 3 Xrotation Yrotation Zrotation
					JOINT LeftToeBase
					{
						OFFSET 0.943001 -26.722000 15.023500
						CHANNELS 3 Xrotation Yrotation Zrotation
						End Site
						{
							OFFSET 0 0 0
						}
					}
				}
			}
		}
	}
	JOINT RightUpLeg_virtual
	{
		OFFSET 0.000000 0.000000 0.000000
		CHANNELS 3 Xrotation Yrotation Zrotation
		JOINT RightUpLeg
		{
			OFFSET -18.735201 -5.666702 -4.541200
			CHANNELS 3 Xrotation Yrotation Zrotation
			JOINT RightLeg
			{
				OFFSET 0.018946 -31.938133 0.493100
				CHANNELS 3 Xrotation Yrotation Zrotation
				JOINT RightFoot
				{
					OFFSET -0.018946 -31.938126 -4.336299
					CHANNELS 3 Xrotation Yrotation Zrotation
					JOINT RightToeBase
					{
						OFFSET -0.943001 -26.722004 15.023500
						CHANNELS 3 Xrotation Yrotation Zrotation
						End Site
						{
							OFFSET 0 0 0
						}
					}
				}
			}
		}
	}
	JOINT Hips_virtual
	{
		OFFSET 0.000000 0.000000 0.000000
		CHANNELS 3 Xrotation Yrotation Zrotation
		JOINT Hips
		{
			OFFSET -0.000000 -0.000000 -0.000000
			CHANNELS 3 Xrotation Yrotation Zrotation
			JOINT Spine
			{
				OFFSET 0.000000 10.199997 -0.299500
				CHANNELS 3 Xrotation Yrotation Zrotation
				JOINT Spine1
				{
					OFFSET 0.000000 11.900002 -1.516600
					CHANNELS 3 Xrotation Yrotation Zrotation
					JOINT Spine2
					{
						OFFSET 0.000000 13.600006 -2.842500
						CHANNELS 3 Xrotation Yrotation Zrotation
						JOINT Neck_virtual
						{
							OFFSET 0.000000 0.000000 0.000000
							CHANNELS 3 Xrotation Yrotation Zrotation
							JOINT Neck
							{
								OFFSET 0.000000 9.624100 -2.890100
								CHANNELS 3 Xrotation Yrotation Zrotation
								JOINT Head
								{
									OFFSET 0.000000 14.068802 -1.351900
									CHANNELS 3 Xrotation Yrotation Zrotation
									End Site
									{
										OFFSET 0 0 0
									}
								}
							}
						}
						JOINT LeftShoulder_virtual
						{
							OFFSET 0.000000 0.000000 0.000000
							CHANNELS 3 Xrotation Yrotation Zrotation
							JOINT LeftShoulder
							{
								OFFSET 15.263000 10.923401 -0.547700
								CHANNELS 3 Xrotation Yrotation Zrotation
								JOINT LeftArm
								{
									OFFSET 25.438599 -2.830597 -13.032500
									CHANNELS 3 Xrotation Yrotation Zrotation
									JOINT LeftForeArm
									{
										OFFSET 29.960503 0.000000 0.000000
										CHANNELS 3 Xrotation Yrotation Zrotation
										JOINT LeftHand
										{
											OFFSET 27.849251 0.000000 0.000000
											CHANNELS 3 Xrotation Yrotation Zrotation
											End Site
											{
												OFFSET 0 0 0
											}
										}
									}
								}
							}
						}
						JOINT RightShoulder_virtual
						{
							OFFSET 0.000000 0.000000 0.000000
							CHANNELS 3 Xrotation Yrotation Zrotation
							JOINT RightShoulder
							{
								OFFSET -15.263000 10.923401 -0.547700
								CHANNELS 3 Xrotation Yrotation Zrotation
								JOINT RightArm
								{
									OFFSET -25.438599 -2.830597 -13.032500
									CHANNELS 3 Xrotation Yrotation Zrotation
									JOINT RightForeArm
									{
										OFFSET -29.960503 0.000000 0.000000
										CHANNELS 3 Xrotation Yrotation Zrotation
										JOINT RightHand
										{
											OFFSET -27.849251 0.000000 0.000000
											CHANNELS 3 Xrotation Yrotation Zrotation
											End Site
											{
												OFFSET 0 0 0
											}
										}
									}
								}
							}
						}
					}
				}
			}
		}
	}
}
MOTION
Frames: 10
Frame Time: 0.03333333
-131.094833 34.826721 14.815124 0.000000 0.000000 0.000000 4.930308 2.277716 -43.042353 -129.843631 -2.401486 0.240950 36.258681 -1.812607 3.846088 33.542270 -10.300719 41.898402 0.000000 0.000000 0.000000 4.930308 2.277716 -43.042353 -114.462332 -8.370239 -31.660232 128.123530 10.587569 0.525655 16.236155 29.882720 6.061731 0.000000 0.000000 0.000000 4.930308 2.277716 -43.042353 0.000000 0.000000 -0.000002 26.964441 -2.092098 -10.669591 4.579540 1.205233 -2.831996 0.000000 0.000000 0.000000 4.490612 1.286416 -2.943279 -0.815414 0.464024 0.362698 0.000000 0.000000 0.000000 4.490612 1.286416 -2.943279 -1.373411 -20.809899 -17.189996 -48.855295 35.869094 -5.133238 -0.000007 -67.519562 0.000002 0.000000 0.000000 0.000000 4.490612 1.286416 -2.943279 0.401295 16.298356 -0.998272 -40.005248 -32.703977 -10.775246 -0.000008 46.721547 0.000014 0.000000 0.000000 0.000000 
-130.489822 35.835976 13.815903 0.000000 0.000000 0.000000 4.640781 1.962973 -43.865073 -128.042305 -2.599250 0.766765 32.092426 -2.122272 3.822885 37.987286 -8.663542 40.230989 0.000000 0.000000 0.000000 4.640781 1.962973 -43.865073 -111.631949 -10.426572 -30.502672 125.463854 10.521984 0.399366 13.901243 29.879294 7.766635 0.000000 0.000000 0.000000 4.640781 1.962973 -43.865073 0.000000 0.000000 0.000002 26.464763 -2.672399 -11.339672 4.544296 1.067062 -3.000534 0.000000 0.000000 0.000000 4.469512 1.152591 -3.102258 -0.818090 0.508255 0.356333 0.000000 0.000000 0.000000 4.469512 1.152591 -3.102258 -0.738569 -20.006918 -16.433097 -50.129231 35.122247 -5.603047 -0.000007 -67.864275 0.000005 0.000000 0.000000 0.000000 4.469512 1.152591 -3.102258 0.572091 17.177629 -1.647715 -40.220699 -36.620551 -13.906590 0.000002 47.792828 -0.000006 0.000000 0.000000 0.000000 
-130.019958 36.934662 12.686409 0.000000 0.000000 0.000000 5.290837 1.784067 -44.647543 -128.655943 -2.283055 0.249243 33.765822 -1.090540 3.498890 37.611127 -7.866491 41.121413 0.000000 0.000000 0.000000 5.290837 1.784067 -44.647543 -109.612372 -12.414741 -29.379430 122.918639 10.245280 0.290340 11.287087 29.838836 9.331470 0.000000 0.000000 0.000000 5.290837 1.784067 -44.647543 0.000000 0.000000 0.000000 25.934327 -3.512445 -11.650447 4.488210 0.843242 -3.085103 0.000000 0.000000 0.000000 4.437032 0.931087 -3.173856 -0.807361 0.553264 0.362637 0.000000 0.000000 0.000000 4.437032 0.931087 -3.173856 -0.122288 -19.220888 -15.638242 -51.499462 33.851633 -6.175589 0.000020 -67.064951 0.000005 0.000000 0.000000 0.000000 4.437032 0.931087 -3.173856 0.605474 17.139993 -2.151160 -40.578492 -39.839308 -15.876109 -0.000000 48.762455 0.000005 0.000000 0.000000 0.000000 
-129.673065 38.198608 11.373291 0.000000 0.000000 0.000000 6.442491 1.664493 -45.695342 -131.238957 -1.764542 -0.682751 40.567670 0.793984 2.228895 33.380142 -7.589000 44.881194 0.000000 0.000000 0.000000 6.442491 1.664493 -45.695342 -107.949029 -14.887968 -28.149964 120.012626 9.742216 0.222321 8.860829 29.793203 10.604769 0.000000 0.000000 0.000000 6.442491 1.664493 -45.695342 0.000000 0.000000 0.000001 25.495510 -4.568044 -11.632330 4.429975 0.562698 -3.087451 0.000000 0.000000 0.000000 4.399094 0.647814 -3.172076 -0.788887 0.595855 0.375753 0.000000 0.000000 0.000000 4.399094 0.647814 -3.172076 0.465881 -18.467182 -14.809602 -53.117336 32.371040 -6.476285 0.000012 -65.498215 0.000006 0.000000 0.000000 0.000000 4.399094 0.647814 -3.172076 0.420655 16.309580 -2.316469 -40.918564 -42.271156 -17.103694 0.000004 49.709789 -0.000001 0.000000 0.000000 0.000000 
-129.320847 39.573792 10.148046 0.000000 0.000000 0.000000 7.662980 1.419655 -47.079015 -136.240253 -1.349299 -1.610209 50.458828 4.161519 1.109963 29.903753 -6.926789 47.508593 0.000000 0.000000 0.000000 7.662980 1.419655 -47.079015 -105.864182 -17.511966 -26.867772 116.366069 9.221934 0.235006 7.175687 29.367573 12.034539 0.000000 0.000000 0.000000 7.662980 1.419655 -47.079015 0.000000 0.000000 -0.000001 25.205152 -5.626966 -11.417930 4.380748 0.257268 -3.026150 0.000000 0.000000 0.000000 4.361411 0.331585 -3.128189 -0.771922 0.634117 0.390752 0.000000 0.000000 0.000000 4.361411 0.331585 -3.128189 1.018438 -17.762518 -13.948083 -54.948527 31.110935 -6.401429 0.000005 -63.876134 0.000007 0.000000 0.000000 0.000000 4.361411 0.331585 -3.128189 0.087499 15.029538 -2.189410 -41.233476 -44.225103 -18.026860 0.000016 50.705852 -0.000042 0.000000 0.000000 0.000000 
-129.032379 40.972858 8.886353 0.000000 0.000000 0.000000 8.951304 1.076753 -48.696964 -141.787173 -0.912280 -2.314786 60.848045 7.883297 0.070612 26.961004 -6.008737 48.527063 0.000000 0.000000 0.000000 8.951304 1.076753 -48.696964 -103.916513 -20.307645 -25.565272 112.205152 8.695502 0.202523 6.366246 28.791143 13.386112 0.000000 0.000000 0.000000 8.951304 1.076753 -48.696964 0.000001 0.000001 0.000001 25.033699 -6.712671 -11.063715 4.340291 -0.053009 -2.926339 0.000000 0.000000 0.000000 4.326355 0.001590 -3.071847 -0.759587 0.668819 0.404820 0.000000 0.000000 0.000000 4.326355 0.001590 -3.071847 1.528359 -17.124230 -13.055621 -56.910950 30.147673 -5.988706 0.000000 -62.567320 -0.000003 0.000000 0.000000 0.000000 4.326355 0.001590 -3.071847 -0.280791 13.602707 -1.925108 -41.602330 -46.076535 -18.868476 -0.000005 51.752135 0.000009 0.000000 0.000000 0.000000 
-128.777298 42.349152 7.577778 0.000000 0.000000 0.000000 10.320764 0.695097 -50.302762 -147.683170 -0.634059 -2.389281 71.667987 11.556312 -1.016030 24.413924 -4.875118 47.206200 0.000000 0.000000 0.000000 10.320764 0.695097 -50.302762 -102.415073 -23.103593 -24.373923 107.903533 8.131940 0.071213 6.389877 28.216690 14.434293 0.000000 0.000000 0.000000 10.320764 0.695097 -50.302762 0.000000 0.000001 0.000000 24.922107 -7.815920 -10.630208 4.303732 -0.361414 -2.808362 0.000000 0.000000 0.000000 4.294034 -0.333743 -3.018384 -0.750010 0.702001 0.416655 0.000000 0.000000 0.000000 4.294034 -0.333743 -3.018384 1.988453 -16.570654 -12.135621 -58.872979 29.283398 -5.449968 -0.000009 -61.316971 0.000004 0.000000 0.000000 0.000000 4.294034 -0.333743 -3.018384 -0.611678 12.188426 -1.652827 -42.107894 -48.111600 -19.647300 -0.000003 52.791949 -0.000011 0.000000 0.000000 0.000000 
-128.512817 43.758614 6.194839 0.000000 0.000000 0.000000 11.800106 0.302224 -51.885132 -153.697534 -1.067993 -1.435182 82.841630 14.394325 -2.186978 22.295597 -3.495970 42.730770 0.000000 0.000000 0.000000 11.800106 0.302224 -51.885132 -101.254884 -25.860671 -23.267231 103.475023 7.293316 -0.001641 7.180148 27.872470 15.065446 0.000000 0.000000 0.000000 11.800106 0.302224 -51.885132 -0.000001 -0.000000 0.000002 24.841169 -8.948985 -10.151141 4.268275 -0.667217 -2.683782 0.000000 0.000000 0.000000 4.264229 -0.670726 -2.969955 -0.741751 0.735134 0.425159 0.000000 0.000000 0.000000 4.264229 -0.670726 -2.969955 2.392745 -16.120993 -11.191409 -60.835074 28.365555 -4.762361 -0.000003 -59.974313 0.000001 0.000000 0.000000 0.000000 4.264229 -0.670726 -2.969955 -0.885413 10.812402 -1.433143 -42.789615 -50.514385 -20.264714 -0.000000 53.767959 -0.000017 0.000000 0.000000 0.000000 
-128.235931 45.253391 4.742205 0.000000 0.000000 0.000000 13.422335 -0.078227 -53.505376 -159.198896 -3.024440 0.703899 94.276903 14.975904 -3.436428 20.248333 -1.642966 34.700086 0.000000 0.000000 0.000000 13.422335 -0.078227 -53.505376 -100.351093 -28.370985 -22.175748 98.702483 6.221967 0.397331 9.141251 27.831489 15.069585 0.000000 0.000000 0.000000 13.422335 -0.078227 -53.505376 0.000001 -0.000001 0.000001 24.801867 -10.144883 -9.629584 4.234757 -0.968882 -2.558011 0.000000 0.000000 0.000000 4.237345 -1.004919 -2.923603 -0.736635 0.768569 0.428686 0.000000 0.000000 0.000000 4.237345 -1.004919 -2.923603 2.738853 -15.791893 -10.224284 -62.826102 27.342417 -3.841272 -0.000013 -58.587935 -0.000019 0.000000 0.000000 0.000000 4.237345 -1.004919 -2.923603 -1.116355 9.413847 -1.273670 -43.583007 -53.343798 -20.543959 -0.000007 54.681497 0.000011 0.000000 0.000000 0.000000 
-128.101013 46.775978 3.544884 0.000000 0.000000 0.000000 15.263750 -0.358346 -55.039987 -161.420456 -2.583493 0.459290 104.531271 16.826526 -4.367138 15.132477 -0.859995 33.582889 0.000000 0.000000 0.000000 15.263750 -0.358346 -55.039987 -100.326244 -30.014208 -21.410722 92.525670 5.914753 1.701726 15.106044 28.133544 13.871269 0.000000 0.000000 0.000000 15.263750 -0.358346 -55.039987 -0.000001 0.000001 0.000002 24.836362 -11.480031 -9.026790 4.205510 -1.261794 -2.434704 0.000000 0.000000 0.000000 4.214190 -1.329372 -2.877528 -0.738520 0.801605 0.425407 0.000000 0.000000 0.000000 4.214190 -1.329372 -2.877528 3.029240 -15.594206 -9.234375 -64.766832 26.176104 -2.837102 0.000018 -57.078166 0.000012 0.000000 0.000000 0.000000 4.214190 -1.329372 -2.877528 -1.325205 7.928360 -1.159178 -44.246713 -56.483369 -20.238877 0.000009 55.596674 -0.000015 0.000000 0.000000 0.000000 
